<?xml version="1.0"?>
<svg xmlns="http://www.w3.org/2000/svg" xmlns:xlink="http://www.w3.org/1999/xlink" version="1.1" viewBox="0 0 252 252" width="48px" height="48px"><g fill="none" fill-rule="nonzero" stroke="none" stroke-width="1" stroke-linecap="butt" stroke-linejoin="miter" stroke-miterlimit="10" stroke-dasharray="" stroke-dashoffset="0" font-family="none" font-weight="none" font-size="none" text-anchor="none" style="mix-blend-mode: normal"><path d="M0,252v-252h252v252z" fill="none"/><g id="Layer_1"><circle cx="24" cy="24" transform="scale(5.25,5.25)" r="20" fill="#3498db"/><path d="M173.46,77.01225l-13.83375,15.813c8.41575,8.53125 13.62375,20.244 13.62375,33.17475c0,26.09775 -21.15225,47.25 -47.25,47.25c-26.09775,0 -47.25,-21.15225 -47.25,-47.25c0,-12.936 5.208,-24.64875 13.629,-33.18l-13.83375,-15.813c-12.80475,12.411 -20.79525,29.757 -20.79525,48.993c0,37.695 30.555,68.25 68.25,68.25c37.695,0 68.25,-30.555 68.25,-68.25c0,-19.236 -7.98525,-36.582 -20.79,-48.98775z" fill="#ecf0f1"/><rect x="22" y="11" transform="scale(5.25,5.25)" width="4" height="12" fill="#ecf0f1"/></g></g></svg>
