<svg xmlns="http://www.w3.org/2000/svg" id="schematicSVG" width="280" height="200" viewBox="0 0 280 200" style="">

    <style type="text/css">


.grid line {
stroke: lightgrey;
stroke-opacity: 0.7;
shape-rendering: crispEdges;
}
.grid path {
stroke-width: 0;
}
.gridVFD line {
stroke: black;
stroke-opacity: 0.5;
}
.gridVFD path {
stroke-width: 0;
}
.gaugeLine {
fill: none;
stroke: black;
stroke-width: 1;
}
.axisRed line{
stroke: red;
}
.axisRed path{
stroke: red;
}
.axisBlue line{
stroke: blue;
}
.axisBlue path{
stroke: blue;
}
.axisPurple line{
stroke: purple;
}
.axisPurple path{
stroke: purple;
}
.chartLineLeft {
fill: none;
stroke: DarkViolet;
stroke-width: 3;
}
.chartLineRight2 {
fill: none;
stroke: red;
stroke-width: 3;
}
.chartLineRight1 {
fill: none;
stroke: blue;
stroke-width: 3;
}
.chartLineCI {
fill: none;
stroke: purple;
stroke-width: 3;
}
.chartLineVAC {
fill: none;
stroke: red;
stroke-width: 3;
}
.chartLineHZ {
fill: none;
stroke: blue;
stroke-width: 3;
}
.axisred line{
stroke: red;
}
.axisred path{
stroke: red;
}
.axisBlue line{
stroke: blue;
}
.axisBlue path{
stroke: blue;
}
.axisDarkViolet line{
stroke: DarkViolet;
}
.axisDarkViolet path{
stroke: DarkViolet;
}

.ticks-automanual {
  font: 10px sans-serif;
}
.track,
.track-inset,
.track-overlay {
  stroke-linecap: round;
}
.track {
  stroke: #000;
  stroke-opacity: 0.3;
  stroke-width: 12px;
}
.track-inset {
  stroke: #ddd;
  stroke-width: 8px;
}
.track-overlay {
  pointer-events: stroke;
  stroke-width: 50px;
  stroke: transparent;

}
.handle {

  stroke: #000;
  stroke-opacity: 0.5;
  stroke-width: 1.25px;
}


</style>

<defs id="endArrowDefs">
<marker id="endArrow" viewBox="0 0 8000 8000" vector-effect="non-scaling-stroke" refX="250" refY="150" markerUnits="strokeWidth" markerWidth="300" markerHeight="300" orient="auto" fill="violet" stroke-linejoin="bevel">
<path d="M2 59,293 148,1 243,121 151,Z" stroke="RGB(0,0,0)">
<marker id="cloneArrow" viewBox="0 0 8000 8000" vector-effect="non-scaling-stroke" refX="250" refY="150" markerUnits="strokeWidth" markerWidth="300" markerHeight="300" orient="auto" fill="RGB(0,0,0)" stroke-linejoin="bevel">
<path d="M2 59,293 148,1 243,121 151,Z" stroke="RGB(0,0,0)"/>
</marker>
</path>
</marker>
</defs>
<defs id="pilotLightDefs">
<radialGradient id="blueGradient" cx="50%" cy="50%" r="75%">
<stop offset="0%" stop-color="rgb(0,0,255)" stop-opacity="1"/>
<stop offset="100%" stop-color="rgb(0,0,0)" stop-opacity="1"/>
</radialGradient>
<radialGradient id="greenGradient" cx="50%" cy="50%" r="75%">
<stop offset="0%" stop-color="rgb(0,191,0)" stop-opacity="1"/>
<stop offset="100%" stop-color="rgb(0,0,0)" stop-opacity="1"/>
</radialGradient>
<radialGradient id="greyGradient" cx="50%" cy="50%" r="75%">
<stop offset="0%" stop-color="rgb(255,255,255)" stop-opacity="1"/>
<stop offset="100%" stop-color="rgb(0,0,0)" stop-opacity="1"/>
</radialGradient>
<radialGradient id="redGradient" cx="50%" cy="50%" r="75%">
<stop offset="0%" stop-color="rgb(255,0,0)" stop-opacity="1"/>
<stop offset="100%" stop-color="rgb(0,0,0)" stop-opacity="1"/>
</radialGradient>
<radialGradient id="violetGradient" cx="50%" cy="50%" r="75%">
<stop offset="0%" stop-color="rgb(219,0,219)" stop-opacity="1"/>
<stop offset="100%" stop-color="rgb(0,0,0)" stop-opacity="1"/>
</radialGradient>
<radialGradient id="aquaGradient" cx="50%" cy="50%" r="75%">
<stop offset="0%" stop-color="aqua" stop-opacity="1"/>
<stop offset="100%" stop-color="rgb(0,0,0)" stop-opacity="1"/>
</radialGradient>
</defs>
<defs id="arrowDefs"/>
<defs id="defsPattern"/>
<defs id="defsGradient"/>
<defs id="defsShadow">
<filter id="drop-shadow" height="150%" width="150%">
<feGaussianBlur in="SourceAlpha" stdDeviation="5" result="blur"/>
<feOffset in="blur" dx="5" dy="5" result="offsetBlur"/>
<feMerge>
<feMergeNode in="offsetBlur"/>
<feMergeNode in="SourceGraphic"/>
</feMerge>
</filter>
</defs>
<defs id="pipe3dDefs">
<filter id="pipe3D">
<feFlood flood-color="black"/>
<feComposite operator="out" in2="SourceGraphic"/>
<feGaussianBlur stdDeviation="6"/>
<feComposite operator="atop" in2="SourceGraphic"/>
</filter>
</defs>
<defs id="alarmWarningTrendDefs">
<linearGradient id="warningMaxTrend" x1="84%" y1="24%" x2="82%" y2="72%">
<stop offset="0%" stop-color="#FF0000" stop-opacity="1"/>
<stop offset="100%" stop-color="#FFA500" stop-opacity="1" stop-offset="100%"/>
</linearGradient>
<linearGradient id="warningMinTrend" x1="84%" y1="24%" x2="82%" y2="72%">
<stop offset="0%" stop-color="#FFA500" stop-opacity="1" stop-offset="0%"/>
<stop offset="100%" stop-color="#FF0000" stop-opacity="1"/>
</linearGradient>
</defs>
<defs id="alarmWarningBarDefs">
<linearGradient id="warningMaxBar" y1="84%" x1="24%" y2="82%" x2="72%">
<stop offset="0" stop-color="#FFA500" stop-opacity="1"/>
<stop offset="100%" stop-color="#FF0000" stop-opacity="1" stop-offset="100%"/>
</linearGradient>
<linearGradient id="warningMinBar" y2="84%" x2="24%" y1="82%" x1="72%">
<stop offset="0" stop-color="#FFA500" stop-opacity="1"/>
<stop offset="100%" stop-color="#FF0000" stop-opacity="1" stop-offset="100%"/>
</linearGradient>
</defs>
<defs id="alarmWarningTankLevelDefs">
<linearGradient id="warningMaxTankLevel" x1="84%" y1="24%" x2="82%" y2="72%">
<stop offset="0%" stop-color="#FF0000" stop-opacity="1"/>
<stop offset="100%" stop-color="#FFA500" stop-opacity="1" stop-offset="100%"/>
</linearGradient>
<linearGradient id="warningMinTankLevel" x1="84%" y1="24%" x2="82%" y2="72%">
<stop offset="0%" stop-color="#FFA500" stop-opacity="1" stop-offset="0%"/>
<stop offset="100%" stop-color="#FF0000" stop-opacity="1"/>
</linearGradient>
</defs>
<g id="zoomG">
<g id="domElemG" shape-rendering="geometricPrecision" text-rendering="geometricPrecision" pointer-events="none">
<g title="Centrifugal Pump" parentid="" nativewidth="154" nativeheight="114" myscale="2" transform="matrix(2, 0, 0, 2, 2.5, 2.5)" id="process1527259623546" class="processElem">
<svg title="Centrifugal Pump" class="Pumps" xmlns:xlink="http://www.w3.org/1999/xlink" height="114" xmlns="http://www.w3.org/2000/svg" width="154" viewBox="0 0 154 114.021" nativewidth="154" nativeheight="114" overflow="visible" myscale="1.0">

    <defs>

        <linearGradient x1="0%" y2="100%" x2="0%" y1="0%" id="lg1_193">

            <stop stop-color="#398c8e" offset="0"/>

            <stop stop-color="#67c3c5" offset="0.15"/>

            <stop stop-color="#bbdee0" offset="0.25"/>

            <stop stop-color="#45a6a9" offset="0.52"/>

            <stop stop-color="#3c9396" offset="0.69"/>

            <stop stop-color="#388b8d" offset="0.8"/>

            <stop stop-color="#358385" offset="0.92"/>

            <stop stop-color="#3e9799" offset="1"/>

        </linearGradient>

        <linearGradient x1="0%" y2="100%" x2="0%" y1="0%" id="lg2_193">

            <stop stop-color="#bdbdbd" offset="0"/>

            <stop stop-color="#ffffff" offset="0.15"/>

            <stop stop-color="#ffffff" offset="0.25"/>

            <stop stop-color="#dfdfdf" offset="0.52"/>

            <stop stop-color="#c7c7c7" offset="0.69"/>

            <stop stop-color="#bcbcbc" offset="0.8"/>

            <stop stop-color="#b1b1b1" offset="0.92"/>

            <stop stop-color="#cbcbcb" offset="1"/>

        </linearGradient>

        <linearGradient x1="0%" y2="100%" x2="0%" y1="0%" id="lg3_193">

            <stop stop-color="#368688" offset="0"/>

            <stop stop-color="#8ccdcf" offset="0.03"/>

            <stop stop-color="#49afb2" offset="0.08"/>

            <stop stop-color="#48acaf" offset="0.64"/>

            <stop stop-color="#46a8ab" offset="0.95"/>

            <stop stop-color="#317c7e" offset="1"/>

        </linearGradient>

        <linearGradient x1="0%" y2="100%" x2="0%" y1="0%" id="lg4_193">

            <stop stop-color="#b5b5b5" offset="0"/>

            <stop stop-color="#ffffff" offset="0.03"/>

            <stop stop-color="#ebebeb" offset="0.08"/>

            <stop stop-color="#e7e7e7" offset="0.64"/>

            <stop stop-color="#e2e2e2" offset="0.95"/>

            <stop stop-color="#a8a8a8" offset="1"/>

        </linearGradient>

        <linearGradient x1="100%" y2="0%" x2="0%" y1="0%" id="lg5_193">

            <stop stop-color="#398c8e" offset="0"/>

            <stop stop-color="#67c3c5" offset="0.15"/>

            <stop stop-color="#bbdee0" offset="0.25"/>

            <stop stop-color="#45a6a9" offset="0.52"/>

            <stop stop-color="#3c9396" offset="0.69"/>

            <stop stop-color="#388b8d" offset="0.8"/>

            <stop stop-color="#358385" offset="0.92"/>

            <stop stop-color="#3e9799" offset="1"/>

        </linearGradient>

        <linearGradient x1="0%" y2="100%" x2="0%" y1="0%" id="lg6_193">

            <stop stop-color="#287f7f" offset="0"/>

            <stop stop-color="#58b3b3" offset="0.15"/>

            <stop stop-color="#b7d7d7" offset="0.25"/>

            <stop stop-color="#319797" offset="0.52"/>

            <stop stop-color="#2a8686" offset="0.69"/>

            <stop stop-color="#277e7e" offset="0.8"/>

            <stop stop-color="#247777" offset="0.92"/>

            <stop stop-color="#2b8989" offset="1"/>

        </linearGradient>

    </defs>

    <g transform="translate(1,1.02)">

        <path transform="translate(30.7,28.27)" id="shape1" fill="url(#lg1_193)" d="M0,0L93.6,0L93.6,68.4L0,68.4L0,0z"/>

        <path transform="translate(27.43,21.03)" id="shape2" fill="url(#lg1_193)" d="M1.6,0C2.6,0,3.3,.7,3.3,1.6L3.3,83.3C3.3,84.2,2.6,84.9,1.7,84.9C.7,84.9,0,84.2,0,83.3L0,1.6C0,.7,.7,0,1.6,0z"/>

        <path transform="translate(-0,44.75)" id="shape3" fill="url(#lg2_193)" d="M1.6,0L13.7,0L13.7,37.4L1.6,37.4C.7,37.4,0,36.7,0,35.8L0,1.6C0,.7,.7,0,1.6,0z"/>

        <path transform="translate(13.59,20.91)" id="shape4" fill="url(#lg1_193)" d="M1.6,0L12.2,0C13.1,0,13.8,.7,13.8,1.6L13.8,83.5C13.8,84.4,13.1,85.1,12.2,85.1L1.6,85.1C.7,85.1,0,84.4,0,83.5L0,1.6C0,.7,.7,0,1.6,0z"/>

        <path transform="translate(139.42,28.27)" id="shape5" fill="url(#lg1_193)" d="M0,0L3.8,0C3.8,0,12.6,-0.1,12.6,34.2C12.6,68.4,3.8,68.4,3.8,68.4L0,68.4L0,0z"/>

        <path transform="translate(43.2,20.12)" id="shape6" fill="url(#lg3_193)" d="M0,12.6L43.3,12.6L43.3,0L0,0L0,12.6z"/>

        <path transform="translate(41.52,14.79)" id="shape7" fill="url(#lg4_193)" d="M1.6,0L46.7,0C47.6,0,48.3,.7,48.3,1.6L48.3,3.7C48.3,4.6,47.6,5.3,46.7,5.3L1.6,5.3C.7,5.3,0,4.6,0,3.7L0,1.6C0,.7,.7,0,1.6,0z"/>

        <path transform="translate(41.52,9.45)" id="shape8" fill="url(#lg4_193)" d="M1.6,0L46.7,0C47.6,0,48.3,.7,48.3,1.6L48.3,3.7C48.3,4.6,47.6,5.3,46.7,5.3L1.6,5.3C.7,5.3,0,4.6,0,3.7L0,1.6C0,.7,.7,0,1.6,0z"/>

        <path transform="translate(41.52,4.13)" id="shape9" fill="url(#lg4_193)" d="M1.6,0L46.7,0C47.6,0,48.3,.7,48.3,1.6L48.3,3.7C48.3,4.6,47.6,5.3,46.7,5.3L1.6,5.3C.7,5.3,0,4.6,0,3.7L0,1.6C0,.7,.7,0,1.6,0z"/>

        <path transform="translate(15.2,10.78)" id="shape10" fill="url(#lg5_193)" d="M0,10.1L10.2,10.1L10.2,0L0,0L0,10.1z"/>

        <path transform="translate(12.68,-0)" id="shape11" fill="url(#lg5_193)" d="M1.6,-0L14.5,-0C15.4,-0,16.1,.7,16.1,1.6L16.1,9.4C16.1,10.2,15.4,11,14.5,11L1.6,11C.7,11,0,10.2,0,9.4L0,1.6C0,.7,.7,-0,1.6,-0z"/>

        <path transform="translate(36.18,96.68)" id="shape12" fill="url(#lg3_193)" d="M1.6,0L18.5,0C19.4,0,20.1,.7,20.1,1.6L20.1,13.7C20.1,14.6,19.4,15.3,18.5,15.3L1.6,15.3C.7,15.3,-0,14.6,-0,13.7L-0,1.6C-0,.7,.7,0,1.6,0z"/>

        <path transform="translate(119.28,96.68)" id="shape13" fill="url(#lg3_193)" d="M1.6,0L18.5,0C19.4,0,20.1,.7,20.1,1.6L20.1,13.7C20.1,14.6,19.4,15.3,18.5,15.3L1.6,15.3C.7,15.3,-0,14.6,-0,13.7L-0,1.6C-0,.7,.7,0,1.6,0z"/>

        <path transform="translate(43.2,32.82)" id="shape14" fill="url(#lg1_193)" d="M0,0L81.3,0L81.3,1.6L0,1.6L0,0z"/>

        <path transform="translate(30.7,28.27)" id="shape15" fill="url(#lg1_193)" d="M0,0L12.5,0L12.5,68.4L0,68.4L0,0z"/>

        <path transform="translate(43.2,92.52)" id="shape16" fill="url(#lg3_193)" d="M0,0L81.3,0L81.3,4.4L0,4.4L0,0z"/>

        <path transform="translate(124.32,28.27)" id="shape17" fill="url(#lg1_193)" d="M0,0L15.1,0L15.1,68.4L0,68.4L0,0z"/>

        <path transform="translate(43.2,42.05)" id="shape18" fill="url(#lg1_193)" d="M0,0L81.3,0L81.3,1.6L0,1.6L0,0z"/>

        <path transform="translate(43.2,51.27)" id="shape19" fill="url(#lg1_193)" d="M0,0L81.3,0L81.3,1.6L0,1.6L0,0z"/>

        <path transform="translate(43.2,60.5)" id="shape20" fill="url(#lg1_193)" d="M0,0L81.3,0L81.3,1.6L0,1.6L0,0z"/>

        <path transform="translate(43.2,69.73)" id="shape21" fill="url(#lg1_193)" d="M0,0L81.3,0L81.3,1.6L0,1.6L0,0z"/>

        <path transform="translate(43.2,78.96)" id="shape22" fill="url(#lg1_193)" d="M0,0L81.3,0L81.3,1.6L0,1.6L0,0z"/>

        <path transform="translate(43.2,88.19)" id="shape23" fill="url(#lg1_193)" d="M0,0L81.3,0L81.3,1.6L0,1.6L0,0z"/>

        <path transform="translate(124.32,28.27)" id="shape24" fill="url(#lg6_193)" d="M0,0L1.8,0L1.8,68.4L0,68.4L0,0z"/>

    </g>

</svg>
<rect width="154" height="114" stroke="none" stroke-width="2" fill="white" fill-opacity="0" style="cursor: default;" onmousedown="editProcess(process1527259623546, evt)"/>
</g>
</g>
</g>
</svg>
